<svg xmlns="http://www.w3.org/2000/svg" id="Layer_2" viewBox="0 0 2583 508.01"><defs><style>.cls-1{fill:#8c8c8c;}.cls-2{fill:#33afdf;}</style></defs><g id="Layer_1-2"><g id="genesis_logo"><path class="cls-2" d="m424.21,277.04c-5.68-7.63-11.61-15.33-17.79-23.04-3.09-3.87-6.25-7.75-9.5-11.67-3.16,3.94-6.37,7.91-9.68,11.89-5.96,7.23-12.17,14.51-18.61,21.83-13.6,15.43-28.24,31.03-43.75,46.56-6.12,6.12-12.27,12.11-18.39,17.95-7.04,6.69-14.04,13.16-21.04,19.47-7.26-5.94-14.57-12.1-21.92-18.53-17.01-14.72-34.23-30.78-51.36-47.92-6.18-6.17-12.24-12.4-18.14-18.61-13.5,15.17-25.49,29.6-36.03,43.22,5.11,5.39,10.38,10.76,15.71,16.08,15.36,15.38,30.88,29.95,46.37,43.58,7.35,6.5,14.67,12.74,21.99,18.8,4,3.31,7.97,6.55,11.95,9.71,7.76,6.21,15.45,12.17,23.12,17.88,97.32,72.5,184.89,103.55,217.79,70.64,32.87-32.91,1.8-120.5-70.73-217.85Zm43.94,162.07c-20.41,20.41-78.42-1.98-147.79-52.21-7.57-5.48-15.27-11.29-23.06-17.4,7.01-6.32,14.01-12.84,21.01-19.56,5.33-5.11,10.66-10.31,15.99-15.66,15.43-15.42,30-30.97,43.66-46.48,6.47-7.29,12.68-14.57,18.71-21.86,6.18,7.82,12.05,15.54,17.6,23.11,51.42,70.38,74.51,129.44,53.88,150.06ZM66.64,37.61c20.88-20.88,81.1,3.05,152.58,55.74,3.88-3.25,7.76-6.47,11.64-9.62C133.55,11.24,45.97-19.78,13.1,13.1c-32.9,32.87-1.82,120.44,70.67,217.78,11.64-14.31,24.01-28.67,37-42.86C69.2,117.51,45.97,58.26,66.64,37.61Z"></path><path class="cls-2" d="m494.93,13.1c-32.87-32.87-120.45-1.86-217.76,70.63-7.66,5.68-15.39,11.64-23.15,17.89-3.88,3.09-7.76,6.25-11.67,9.5-7.29,6.02-14.63,12.27-21.96,18.74-15.58,13.71-31.19,28.35-46.68,43.84-5.43,5.42-10.76,10.89-16,16.34-6.66,6.97-13.16,13.95-19.46,20.95-13,14.38-25.24,28.76-36.63,43.01-6.21,7.74-12.17,15.42-17.85,23.1C11.28,374.42-19.8,461.98,13.1,494.89c32.9,32.91,120.48,1.86,217.8-70.64-4.01-3.28-8.01-6.58-12.05-9.97-70.32,51.39-129.37,74.45-149.97,53.86-20.41-20.41,1.98-78.46,52.24-147.84,5.46-7.54,11.26-15.23,17.38-23.02,11.07-14.14,23.18-28.58,36.21-43.15,6.21-6.97,12.62-13.98,19.25-20.99,6.62-7,13.44-14,20.44-21.01,16.37-16.37,32.83-31.76,49.12-45.96,7.32-6.44,14.6-12.58,21.8-18.52,3.94-3.21,7.85-6.37,11.73-9.43,7.76-6.15,15.42-11.98,22.96-17.51,70.51-51.54,129.72-74.76,150.38-54.1,20.88,20.89-3.06,81.14-55.77,152.65,3.25,3.87,6.44,7.75,9.59,11.67,72.52-97.38,103.6-184.98,70.73-217.85Z"></path><path class="cls-1" d="m727.58,465.68c-29.4,0-44.51-7.76-64.93-26.13l13.88-13.9c15.52,14.3,26.14,21.65,51.05,21.65,41.26,0,59.64-28.99,59.64-68.19v-35.13c-17.57,22.87-35.95,27.77-58.41,27.77-20.83,0-37.98-6.94-48.19-17.15-20.01-20.02-25.32-52.68-25.32-83.73s5.31-63.71,25.32-83.73c10.21-10.21,27.37-17.16,48.19-17.16,22.46,0,40.85,4.9,58.41,27.77v-25.32h20.82v207.88c0,49.43-29.4,85.37-80.46,85.37Zm4.09-277.32c-48.19,0-55.55,41.66-55.55,82.51s7.35,82.49,55.55,82.49,55.55-41.66,55.55-82.49-7.36-82.51-55.55-82.51Z"></path><path class="cls-1" d="m944.44,352.95c23.28,0,37.57-6.94,54.32-23.69l15.52,12.25c-20.01,20.02-38.39,30.23-71.07,30.23-54.32,0-83.73-35.13-83.73-100.88s29.41-100.88,78.83-100.88,78.82,35.53,78.82,95.98v9.4h-136.82c0,50.24,22.06,77.59,64.13,77.59Zm44.92-131.52c-8.58-20.83-28.18-33.08-51.05-33.08s-42.48,12.25-51.05,33.08c-4.5,12.66-5.72,17.98-6.95,37.16h116c-1.23-18.78-1.64-25.32-6.94-37.16Z"></path><path class="cls-1" d="m1197.77,247.17c0-37.98-18.78-58.81-54.31-58.81s-55.54,21.25-55.54,58.81v122.13h-20.83v-196.87h20.83v23.28c14.7-17.16,33.9-25.73,57.99-25.73,21.64,0,39.21,6.13,52.28,18.79,13.48,13.07,20.43,31.44,20.43,54.72v125.8h-20.84v-122.13Z"></path><path class="cls-1" d="m1353.25,352.95c23.27,0,37.56-6.94,54.31-23.69l15.52,12.25c-20,20.02-38.39,30.23-71.07,30.23-54.31,0-83.72-35.13-83.72-100.88s29.41-100.88,78.82-100.88,78.83,35.53,78.83,95.98v9.4h-136.82c0,50.24,22.06,77.59,64.13,77.59Zm44.93-131.52c-8.58-20.83-28.19-33.08-51.07-33.08s-42.48,12.25-51.05,33.08c-4.49,12.66-5.71,17.98-6.94,37.16h116c-1.22-18.78-1.63-25.32-6.94-37.16Z"></path><path class="cls-1" d="m1542.95,371.74c-34.31,0-59.63-8.98-79.65-28.17l14.3-14.3c15.11,15.93,36.75,24.09,64.53,24.09,38.8,0,59.22-13.47,59.22-40.02,0-20.83-11.43-30.23-37.57-33.09l-32.67-2.86c-39.62-3.26-59.23-20.41-59.23-51.46,0-34.3,27.77-55.95,70.67-55.95,27.36,0,51.46,7.76,69.03,20.83l-13.89,13.89c-15.12-11.03-33.49-16.75-55.13-16.75-32.68,0-50.23,13.47-50.23,37.98,0,20.83,12.24,30.22,40.02,33.08l31.85,2.86c32.68,3.27,57.59,13.07,57.59,51.46,0,35.94-30.22,58.4-78.82,58.4Z"></path><path class="cls-1" d="m1664.68,78.5h25.73v25.72h-25.73v-25.72Zm2.45,93.93h20.83v196.87h-20.83v-196.87Z"></path><path class="cls-1" d="m1811.42,371.74c-34.3,0-59.63-8.98-79.64-28.17l14.3-14.3c15.11,15.93,36.76,24.09,64.53,24.09,38.8,0,59.23-13.47,59.23-40.02,0-20.83-11.44-30.23-37.58-33.09l-32.67-2.86c-39.62-3.26-59.22-20.41-59.22-51.46,0-34.3,27.76-55.95,70.65-55.95,27.37,0,51.47,7.76,69.03,20.83l-13.89,13.89c-15.12-11.03-33.49-16.75-55.14-16.75-32.67,0-50.24,13.47-50.24,37.98,0,20.83,12.25,30.22,40.03,33.08l31.86,2.86c32.68,3.27,57.59,13.07,57.59,51.46,0,35.94-30.22,58.4-78.83,58.4Z"></path><path class="cls-1" d="m2018.39,371.74c-46.56,0-92.31-28.59-92.31-106.18s45.75-105.79,92.31-105.79c28.6,0,48.6,8.16,68.21,29l-28.58,27.76c-13.07-14.29-23.28-19.61-39.62-19.61s-29.4,6.54-38.39,18.38c-8.99,11.44-12.25,26.14-12.25,50.24s3.26,39.21,12.25,50.64c8.98,11.83,22.46,18.37,38.39,18.37s26.55-5.3,39.62-19.61l28.58,27.37c-19.61,20.83-39.61,29.41-68.21,29.41Z"></path><path class="cls-1" d="m2256.65,347.23c-13.48,13.89-33.9,24.51-62.08,24.51s-48.2-10.62-61.67-24.51c-19.61-20.43-24.51-46.56-24.51-81.68s4.9-60.86,24.51-81.29c13.47-13.88,33.48-24.49,61.67-24.49s48.61,10.62,62.08,24.49c19.61,20.43,24.5,46.57,24.5,81.29s-4.89,61.25-24.5,81.68Zm-31.45-138.46c-7.76-7.75-18.38-11.84-30.63-11.84s-22.47,4.09-30.22,11.84c-12.66,12.66-14.3,34.31-14.3,56.78s1.64,44.1,14.3,56.76c7.75,7.76,17.97,12.25,30.22,12.25s22.87-4.48,30.63-12.25c12.66-12.66,14.3-34.31,14.3-56.76s-1.64-44.12-14.3-56.78Z"></path><path class="cls-1" d="m2321.86,121.38v-44.12h44.12v44.12h-44.12Zm1.23,247.92v-207.08h41.66v207.08h-41.66Z"></path><path class="cls-1" d="m2541.34,369.3v-126.21c0-32.26-18.38-46.16-41.66-46.16s-42.88,14.3-42.88,46.16v126.21h-41.66v-207.08h40.84v20.83c14.3-15.52,34.3-23.28,55.14-23.28s38.8,6.94,51.05,18.78c15.93,15.52,20.83,35.12,20.83,58.4v132.34h-41.66Z"></path></g></g></svg>